# xmcd
#
# Track frame offsets: 
#        150
#        17403
#        41414
#        64247
#        81566
#        101217
#        123511
#        144754
#        165134
#        178652
#        196493
#        212890
#        238821
#        250701
#
# Disc length: 3611 seconds
#
# Revision: 0
# Processed by: cddbd v1.5.2PL0 Copyright (c) Steve Scherf et al.
# Submitted via: ExactAudioCopy v1.3
#
DISCID=be0e190e
DTITLE=Corey Smith - Live in Chattanooga
DYEAR=2012
DGENRE=Red Dirt Country
TTITLE0=Maybe Next Year
TTITLE1=$8 Bottle of Wine
TTITLE2=The Good Life
TTITLE3=Party
TTITLE4=Drinking Again
TTITLE5=I Love Everyone (AKA - I Love Black People)
TTITLE6=What Happened
TTITLE7=Carolina
TTITLE8=I Can't Help Myself
TTITLE9=Chattanooga
TTITLE10=Twenty-One
TTITLE11=If I Could Do It Again
TTITLE12=Speak The Truth
TTITLE13=Fuck The Po-Po
EXTD=
EXTT0=
EXTT1=
EXTT2=
EXTT3=
EXTT4=
EXTT5=
EXTT6=
EXTT7=
EXTT8=
EXTT9=
EXTT10=
EXTT11=
EXTT12=
EXTT13=
PLAYORDER=
